[img]http://imgr.us/images/3ar4bi1mn39g7lamxpx.png[/img]
-------------------------------------------------
[img]http://imgr.us/images/q9oy4odn5053an1o867h.png[/img]
-------------------------------------------------
File Name    : Calling All Creeps
Type         : TV Series
Format       : AVI
File Size    : 177 MB
Duration     : 00:21:14
Language     : English
Source       : DvD
-------------------------------------------------
Season       : 2
Episode      : 19
-------------------------------------------------
Air Date     : Saturday February 15, 1997
Subtitles    : None
Genre        : Family | Fantasy | Horror
IMDB Link    : http://www.imdb.com/title/tt0591332/
-------------------------------------------------
[img]http://imgr.us/images/a14k8fabur54ad5gubq4.png[/img]
-------------------------------------------------
Format                           : MPEG-4 Visual
Format profile                   : Advanced Simple@L5
Format settings, BVOP            : 1
Format settings, QPel            : No
Format settings, GMC             : No warppoints
Format settings, Matrix          : Default (H.263)
Muxing mode                      : Packed bitstream
Codec ID                         : XVID
Codec ID/Hint                    : XviD
Duration                         : 21mn 14s
Bit rate                         : 961 Kbps
Width                            : 576 pixels
Height                           : 432 pixels
Display aspect ratio             : 4:3
Frame rate                       : 23.976 fps
Color space                      : YUV
Chroma subsampling               : 4:2:0
Bit depth                        : 8 bits
Scan type                        : Progressive
Compression mode                 : Lossy
Bits/(Pixel*Frame)               : 0.161
Stream size                      : 146 MiB (83%)
Writing library                  : XviD 1.2.1
-------------------------------------------------
[img]http://imgr.us/images/2s0oz5wrpxo5em2q6m.png[/img]
-------------------------------------------------
Format                           : AC-3
Format/Info                      : Audio Coding 3
Format profile                   : Dolby Digital
Mode extension                   : CM (complete main)
Codec ID                         : 2000
Duration                         : 21mn 14s
Bit rate mode                    : Constant
Bit rate                         : 192 Kbps
Channel(s)                       : 2 channels
Channel positions                : Front: L R
Sampling rate                    : 48.0 KHz
Bit depth                        : 16 bits
Compression mode                 : Lossy
Delay relative to video          : 8ms
Stream size                      : 29.2 MiB (17%)
Alignment                        : Split accross interleaves
Interleave, duration             : 42 ms (1.00 video frame)
Interleave, preload duration     : 500 ms
-------------------------------------------------
[img]http://imgr.us/images/bnnacqs56aalgsuyqma.png[/img]
-------------------------------------------------
When Ricky gets kicked off the paper, he decides to play 
a prank on the editor. He sticks a message in the paper 
that reads "If you're a real creep, call Tasha after 
midnight." But Ricky's message gets messed up. And now 
he's getting strange calls from kids who say they are 
creeps.
-------------------------------------------------
[img]http://imgr.us/images/7clcz7gn5qp6df9a7b1t.png[/img]
[img]http://imgr.us/images/ouz3ugi08r8j9axmdo4n.png[/img]
[img]http://imgr.us/images/zk5i9mb9zp3a9smvc1q7.png[/img]
[img]http://imgr.us/images/zn6ly9enmxep1frr50n5.png[/img]
[img]http://imgr.us/images/zpdycq3f64flsbcn6tqi.png[/img]
[img]http://imgr.us/images/mq4isovxdtq5a7hjyq8h.jpg[/img]